Coordinates
version=1
nRows=5
nColumns=40
inDegrees=yes

Units are S.I. units (second, meters, Newtons, ...)
Angles are in degrees.

endheader
time	pelvis_tilt	pelvis_list	pelvis_rotation	pelvis_tx	pelvis_ty	pelvis_tz	hip_flexion_r	hip_adduction_r	hip_rotation_r	knee_angle_r	knee_angle_r_beta	ankle_angle_r	subtalar_angle_r	mtp_angle_r	hip_flexion_l	hip_adduction_l	hip_rotation_l	knee_angle_l	knee_angle_l_beta	ankle_angle_l	subtalar_angle_l	mtp_angle_l	lumbar_extension	lumbar_bending	lumbar_rotation	arm_flex_r	arm_add_r	arm_rot_r	elbow_flex_r	pro_sup_r	wrist_flex_r	wrist_dev_r	arm_flex_l	arm_add_l	arm_rot_l	elbow_flex_l	pro_sup_l	wrist_flex_l	wrist_dev_l
      0.62000000	     -1.84362537	      2.24779867	     -1.84634632	      0.05103039	      0.93867150	     -1.41753789	     -9.06076177	     -2.65177969	    -18.06186094	    -12.27496377	     -0.21423853	     13.02854862	      7.08032147	    -17.47751290	     25.55492967	      5.33088444	     22.81665413	     -8.15636936	     -0.14235550	     -0.86209174	     -3.52656920	      7.70950885	     -1.61964050	     -2.97696762	      7.90938311	      9.62807264	    -15.00469232	     -6.15535079	     37.36018696	     89.95437384	      0.00000000	      0.00000000	    -13.56409493	      8.00597519	      5.31875787	     10.01685801	     89.95437384	      0.00000000	      0.00000000
      0.63000000	     -1.68872367	      2.34209880	     -2.18891071	      0.06512653	      0.93614183	     -1.41925425	    -10.11885576	     -3.09553867	    -18.87490743	    -12.41638134	     -0.21670674	     13.34815127	      8.06620150	    -17.90579357	     25.65139613	      5.36748453	     23.62940816	     -6.63079359	     -0.11572918	     -2.01982857	     -6.45420371	      7.28217966	     -1.68513698	     -3.02179034	      8.33190917	      9.99458673	    -15.43124967	     -6.21760816	     38.67771720	     89.95437384	      0.00000000	      0.00000000	    -14.58867583	      7.87040161	      4.25110312	      8.80199635	     89.95437384	      0.00000000	      0.00000000
      0.64000000	     -1.58366966	      2.39614795	     -2.59753453	      0.07948252	      0.93359749	     -1.42095821	    -11.09259064	     -3.55114706	    -19.58974277	    -12.62839847	     -0.22040713	     13.58237560	      9.25820720	    -18.29020819	     25.84993672	      5.54306322	     24.35586453	     -5.85978136	     -0.10227248	     -2.86960941	     -9.03724930	      6.71172167	     -1.62833179	     -2.99901240	      8.90724850	     10.29100933	    -15.75834106	     -6.77890582	     39.81719398	     89.95437384	      0.00000000	      0.00000000	    -15.64260161	      7.79651994	      2.45368125	      7.74277791	     89.95437384	      0.00000000	      0.00000000
      0.65000000	     -1.65823812	      2.39527754	     -2.97486254	      0.09374549	      0.93090921	     -1.42266522	    -11.79015789	     -3.86782487	    -19.57152052	    -12.94828058	     -0.22599013	     13.50205843	      9.07635052	    -18.11982706	     26.38332152	      5.71922875	     24.03479684	     -5.97448393	     -0.10427442	     -2.88753253	     -8.96608113	      6.64538264	     -1.39404917	     -2.93869723	      9.11828926	     10.88106121	    -15.93477364	     -6.96286171	     40.51011364	     89.95437384	      0.00000000	      0.00000000	    -16.94493746	      7.56988989	      2.36128360	      7.15637465	     89.95437384	      0.00000000	      0.00000000
      0.66000000	     -1.39775972	      2.44840876	     -3.60220511	      0.10864585	      0.92887316	     -1.42421072	    -12.83692858	     -4.39900862	    -19.52359010	    -13.27740788	     -0.23173448	     13.61406184	      9.32657431	    -18.09063233	     26.30611373	      5.89676119	     23.40022177	     -6.34957662	     -0.11082102	     -2.70896994	     -8.96236849	      6.49485487	     -1.48076133	     -2.90965780	      9.95536968	     10.75913087	    -16.33142121	     -7.50713895	     41.95924802	     89.95437384	      0.00000000	      0.00000000	    -17.57807335	      7.39004026	      1.76823202	      5.71623749	     89.95437384	      0.00000000	      0.00000000
